Coordinates
version=1
nRows=43
nColumns=12
inDegrees=yes

Units are S.I. units (second, meters, Newtons, ...)
Angles are in degrees

endheader
time	SC_y	SC_z	SC_x	AC_y	AC_z	AC_x	GH_y	GH_z	GH_yy	EL_x	PS_y
       0.0              -53.24          30.96          28.91          38.82          3.798         -15.23         -109.9         -2.755         -88.81          75.84          6.288
   0.02261              -53.24          30.96          28.92          38.82          3.799         -15.23         -109.9         -2.748          -88.8          75.83          6.288
   0.04521              -53.23          30.96          28.92          38.83            3.8         -15.23         -109.9         -2.742          -88.8          75.82          6.288
   0.06782              -53.23          30.95          28.93          38.83          3.801         -15.23         -109.9         -2.734         -88.79          75.82          6.289
   0.09043              -53.23          30.95          28.93          38.83          3.802         -15.23         -109.9         -2.727         -88.79          75.81          6.289
     0.113              -53.23          30.94          28.94          38.83          3.803         -15.22         -109.9         -2.719         -88.79           75.8           6.29
    0.1356              -53.22          30.94          28.94          38.83          3.804         -15.22         -110.0          -2.71         -88.78          75.79           6.29
    0.1582              -53.22          30.93          28.95          38.84          3.806         -15.22         -110.0         -2.701         -88.77          75.78          6.291
    0.1809              -53.22          30.93          28.95          38.84          3.807         -15.21         -110.0         -2.691         -88.77          75.77          6.292
    0.2035              -53.21          30.92          28.96          38.84          3.809         -15.21         -110.0         -2.681         -88.76          75.76          6.292
    0.2261              -53.21          30.91          28.97          38.85           3.81         -15.21         -110.0         -2.669         -88.75          75.75          6.293
    0.2487              -53.21          30.91          28.98          38.85          3.812          -15.2         -110.0         -2.657         -88.75          75.74          6.294
    0.2713               -53.2           30.9          28.99          38.85          3.814          -15.2         -110.0         -2.644         -88.74          75.72          6.295
    0.2939               -53.2          30.89           29.0          38.86          3.816         -15.19         -110.1         -2.629         -88.73          75.71          6.295
    0.3165              -53.19          30.88          29.01          38.86          3.818         -15.19         -110.1         -2.614         -88.72          75.69          6.296
    0.3391              -53.19          30.87          29.02          38.87           3.82         -15.18         -110.1         -2.597         -88.71          75.68          6.297
    0.3617              -53.18          30.86          29.03          38.87          3.823         -15.17         -110.1         -2.579          -88.7          75.66          6.299
    0.3843              -53.17          30.85          29.05          38.88          3.826         -15.17         -110.2         -2.559         -88.68          75.64            6.3
    0.4069              -53.16          30.84          29.06          38.88          3.829         -15.16         -110.2         -2.538         -88.67          75.62          6.301
    0.4295              -53.16          30.82          29.08          38.89          3.832         -15.15         -110.2         -2.514         -88.65          75.59          6.303
    0.4521              -53.15          30.81           29.1           38.9          3.836         -15.14         -110.3         -2.488         -88.64          75.56          6.304
    0.4747              -53.14          30.79          29.11          38.91           3.84         -15.13         -110.3         -2.459         -88.62          75.54          6.306
    0.4973              -53.13          30.77          29.14          38.91          3.844         -15.12         -110.3         -2.428          -88.6           75.5          6.308
      0.52              -53.11          30.75          29.16          38.92          3.849         -15.11         -110.4         -2.393         -88.58          75.47           6.31
    0.5426               -53.1          30.73          29.19          38.93          3.855          -15.1         -110.4         -2.354         -88.55          75.43          6.313
    0.5652              -53.09           30.7          29.22          38.95          3.861         -15.08         -110.5          -2.31         -88.52          75.38          6.315
    0.5878              -53.07          30.67          29.25          38.96          3.868         -15.07         -110.6         -2.261         -88.49          75.33          6.319
    0.6104              -53.05          30.64          29.29          38.98          3.875         -15.05         -110.6         -2.207         -88.46          75.28          6.322
     0.633              -53.03           30.6          29.33          38.99          3.884         -15.03         -110.7         -2.145         -88.42          75.22          6.326
    0.6556              -53.01          30.56          29.38          39.01          3.894          -15.0         -110.8         -2.075         -88.37          75.14           6.33
    0.6782              -52.98          30.52          29.44          39.04          3.905         -14.97         -110.9         -1.994         -88.32          75.06          6.335
    0.7008              -52.95          30.46           29.5          39.06          3.918         -14.94         -111.0         -1.902         -88.26          74.97          6.341
    0.7234              -52.91           30.4          29.57          39.09          3.933         -14.91         -111.2         -1.796          -88.2          74.86          6.348
     0.746              -52.87          30.33          29.66          39.13          3.951         -14.86         -111.3         -1.673         -88.12          74.73          6.355
    0.7686              -52.82          30.24          29.76          39.17          3.971         -14.81         -111.5         -1.528         -88.03          74.59          6.364
    0.7912              -52.76          30.14          29.87          39.22          3.995         -14.76         -111.8         -1.358         -87.92          74.41          6.375
    0.8138              -52.69          30.02          30.01          39.27          4.024         -14.69         -112.0         -1.155         -87.79          74.21          6.388
    0.8364              -52.61          29.88          30.18          39.34          4.058          -14.6         -112.4        -0.9127         -87.63          73.96          6.403
     0.859              -52.51           29.7          30.38          39.42          4.099          -14.5         -112.8        -0.6192         -87.45          73.66          6.421
    0.8817              -52.38          29.49          30.63          39.52           4.15         -14.38         -113.2        -0.2606         -87.22           73.3          6.444
    0.9043              -52.23          29.23          30.94          39.65          4.212         -14.23         -113.8         0.1819         -86.93          72.85          6.471
    0.9269              -52.04          28.91          31.32           39.8           4.29         -14.04         -114.6         0.7338         -86.58          72.28          6.506
    0.9495              -51.81           28.5           31.8           40.0          4.388          -13.8         -115.5          1.429         -86.14          71.58           6.55
